<svg xmlns="http://www.w3.org/2000/svg" xmlns:xlink="http://www.w3.org/1999/xlink" contentStyleType="text/css" data-diagram-type="ACTIVITY" height="264px" preserveAspectRatio="none" style="width:476px;height:264px;background:#FFFFFF;" version="1.1" viewBox="0 0 476 264" width="476px" zoomAndPan="magnify"><defs/><g><ellipse cx="238.4409" cy="20" fill="#222222" rx="10" ry="10" style="stroke:#222222;stroke-width:1;"/><polygon fill="#F1F1F1" points="223.4744,50,253.4075,50,265.4075,62,253.4075,74,223.4744,74,211.4744,62,223.4744,50" style="stroke:#181818;stroke-width:0.5;"/><text fill="#000000" font-family="sans-serif" font-size="11" lengthAdjust="spacing" textLength="29.9331" x="223.4744" y="65.8081">a &gt; b</text><text fill="#000000" font-family="sans-serif" font-size="11" lengthAdjust="spacing" textLength="20.4424" x="191.032" y="59.4058">ano</text><text fill="#000000" font-family="sans-serif" font-size="11" lengthAdjust="spacing" textLength="13.7393" x="265.4075" y="59.4058">ne</text><polygon fill="#F1F1F1" points="100.1956,84,129.1941,84,141.1941,96,129.1941,108,100.1956,108,88.1956,96,100.1956,84" style="stroke:#181818;stroke-width:0.5;"/><text fill="#000000" font-family="sans-serif" font-size="11" lengthAdjust="spacing" textLength="28.9985" x="100.1956" y="99.8081">a &gt; c</text><text fill="#000000" font-family="sans-serif" font-size="11" lengthAdjust="spacing" textLength="20.4424" x="67.7532" y="93.4058">ano</text><text fill="#000000" font-family="sans-serif" font-size="11" lengthAdjust="spacing" textLength="13.7393" x="141.1941" y="93.4058">ne</text><rect fill="#F1F1F1" height="33.9688" rx="12.5" ry="12.5" style="stroke:#181818;stroke-width:0.5;" width="93.6523" x="11" y="118"/><text fill="#000000" font-family="sans-serif" font-size="12" lengthAdjust="spacing" textLength="73.6523" x="21" y="139.1387">A je nejvet&#353;&#237;</text><rect fill="#F1F1F1" height="33.9688" rx="12.5" ry="12.5" style="stroke:#181818;stroke-width:0.5;" width="93.8223" x="124.6523" y="118"/><text fill="#000000" font-family="sans-serif" font-size="12" lengthAdjust="spacing" textLength="73.8223" x="134.6523" y="139.1387">C je nejv&#283;t&#353;&#237;</text><polygon fill="#F1F1F1" points="114.6948,157.9688,126.6948,169.9688,114.6948,181.9688,102.6948,169.9688,114.6948,157.9688" style="stroke:#181818;stroke-width:0.5;"/><polygon fill="#F1F1F1" points="347.5669,84,376.8071,84,388.8071,96,376.8071,108,347.5669,108,335.5669,96,347.5669,84" style="stroke:#181818;stroke-width:0.5;"/><text fill="#000000" font-family="sans-serif" font-size="11" lengthAdjust="spacing" textLength="29.2402" x="347.5669" y="99.8081">b &gt; c</text><text fill="#000000" font-family="sans-serif" font-size="11" lengthAdjust="spacing" textLength="20.4424" x="315.1245" y="93.4058">ano</text><text fill="#000000" font-family="sans-serif" font-size="11" lengthAdjust="spacing" textLength="13.7393" x="388.8071" y="93.4058">ne</text><rect fill="#F1F1F1" height="33.9688" rx="12.5" ry="12.5" style="stroke:#181818;stroke-width:0.5;" width="93.6758" x="258.4746" y="118"/><text fill="#000000" font-family="sans-serif" font-size="12" lengthAdjust="spacing" textLength="73.6758" x="268.4746" y="139.1387">B je nejv&#283;t&#353;&#237;</text><rect fill="#F1F1F1" height="33.9688" rx="12.5" ry="12.5" style="stroke:#181818;stroke-width:0.5;" width="93.8223" x="372.1504" y="118"/><text fill="#000000" font-family="sans-serif" font-size="12" lengthAdjust="spacing" textLength="73.8223" x="382.1504" y="139.1387">C je nejv&#283;t&#353;&#237;</text><polygon fill="#F1F1F1" points="362.187,157.9688,374.187,169.9688,362.187,181.9688,350.187,169.9688,362.187,157.9688" style="stroke:#181818;stroke-width:0.5;"/><polygon fill="#F1F1F1" points="238.4409,187.9688,250.4409,199.9688,238.4409,211.9688,226.4409,199.9688,238.4409,187.9688" style="stroke:#181818;stroke-width:0.5;"/><ellipse cx="238.4409" cy="242.9688" fill="none" rx="11" ry="11" style="stroke:#222222;stroke-width:1;"/><ellipse cx="238.4409" cy="242.9688" fill="#222222" rx="6" ry="6" style="stroke:#222222;stroke-width:1;"/><line style="stroke:#181818;stroke-width:1;" x1="88.1956" x2="57.8262" y1="96" y2="96"/><line style="stroke:#181818;stroke-width:1;" x1="57.8262" x2="57.8262" y1="96" y2="118"/><polygon fill="#181818" points="53.8262,108,57.8262,118,61.8262,108,57.8262,112" style="stroke:#181818;stroke-width:1;"/><line style="stroke:#181818;stroke-width:1;" x1="141.1941" x2="171.5635" y1="96" y2="96"/><line style="stroke:#181818;stroke-width:1;" x1="171.5635" x2="171.5635" y1="96" y2="118"/><polygon fill="#181818" points="167.5635,108,171.5635,118,175.5635,108,171.5635,112" style="stroke:#181818;stroke-width:1;"/><line style="stroke:#181818;stroke-width:1;" x1="57.8262" x2="57.8262" y1="151.9688" y2="169.9688"/><line style="stroke:#181818;stroke-width:1;" x1="57.8262" x2="102.6948" y1="169.9688" y2="169.9688"/><polygon fill="#181818" points="92.6948,165.9688,102.6948,169.9688,92.6948,173.9688,96.6948,169.9688" style="stroke:#181818;stroke-width:1;"/><line style="stroke:#181818;stroke-width:1;" x1="171.5635" x2="171.5635" y1="151.9688" y2="169.9688"/><line style="stroke:#181818;stroke-width:1;" x1="171.5635" x2="126.6948" y1="169.9688" y2="169.9688"/><polygon fill="#181818" points="136.6948,165.9688,126.6948,169.9688,136.6948,173.9688,132.6948,169.9688" style="stroke:#181818;stroke-width:1;"/><line style="stroke:#181818;stroke-width:1;" x1="335.5669" x2="305.3125" y1="96" y2="96"/><line style="stroke:#181818;stroke-width:1;" x1="305.3125" x2="305.3125" y1="96" y2="118"/><polygon fill="#181818" points="301.3125,108,305.3125,118,309.3125,108,305.3125,112" style="stroke:#181818;stroke-width:1;"/><line style="stroke:#181818;stroke-width:1;" x1="388.8071" x2="419.0615" y1="96" y2="96"/><line style="stroke:#181818;stroke-width:1;" x1="419.0615" x2="419.0615" y1="96" y2="118"/><polygon fill="#181818" points="415.0615,108,419.0615,118,423.0615,108,419.0615,112" style="stroke:#181818;stroke-width:1;"/><line style="stroke:#181818;stroke-width:1;" x1="305.3125" x2="305.3125" y1="151.9688" y2="169.9688"/><line style="stroke:#181818;stroke-width:1;" x1="305.3125" x2="350.187" y1="169.9688" y2="169.9688"/><polygon fill="#181818" points="340.187,165.9688,350.187,169.9688,340.187,173.9688,344.187,169.9688" style="stroke:#181818;stroke-width:1;"/><line style="stroke:#181818;stroke-width:1;" x1="419.0615" x2="419.0615" y1="151.9688" y2="169.9688"/><line style="stroke:#181818;stroke-width:1;" x1="419.0615" x2="374.187" y1="169.9688" y2="169.9688"/><polygon fill="#181818" points="384.187,165.9688,374.187,169.9688,384.187,173.9688,380.187,169.9688" style="stroke:#181818;stroke-width:1;"/><line style="stroke:#181818;stroke-width:1;" x1="211.4744" x2="114.6948" y1="62" y2="62"/><line style="stroke:#181818;stroke-width:1;" x1="114.6948" x2="114.6948" y1="62" y2="84"/><polygon fill="#181818" points="110.6948,74,114.6948,84,118.6948,74,114.6948,78" style="stroke:#181818;stroke-width:1;"/><line style="stroke:#181818;stroke-width:1;" x1="265.4075" x2="362.187" y1="62" y2="62"/><line style="stroke:#181818;stroke-width:1;" x1="362.187" x2="362.187" y1="62" y2="84"/><polygon fill="#181818" points="358.187,74,362.187,84,366.187,74,362.187,78" style="stroke:#181818;stroke-width:1;"/><line style="stroke:#181818;stroke-width:1;" x1="114.6948" x2="114.6948" y1="181.9688" y2="199.9688"/><line style="stroke:#181818;stroke-width:1;" x1="114.6948" x2="226.4409" y1="199.9688" y2="199.9688"/><polygon fill="#181818" points="216.4409,195.9688,226.4409,199.9688,216.4409,203.9688,220.4409,199.9688" style="stroke:#181818;stroke-width:1;"/><line style="stroke:#181818;stroke-width:1;" x1="362.187" x2="362.187" y1="181.9688" y2="199.9688"/><line style="stroke:#181818;stroke-width:1;" x1="362.187" x2="250.4409" y1="199.9688" y2="199.9688"/><polygon fill="#181818" points="260.4409,195.9688,250.4409,199.9688,260.4409,203.9688,256.4409,199.9688" style="stroke:#181818;stroke-width:1;"/><line style="stroke:#181818;stroke-width:1;" x1="238.4409" x2="238.4409" y1="30" y2="50"/><polygon fill="#181818" points="234.4409,40,238.4409,50,242.4409,40,238.4409,44" style="stroke:#181818;stroke-width:1;"/><line style="stroke:#181818;stroke-width:1;" x1="238.4409" x2="238.4409" y1="211.9688" y2="231.9688"/><polygon fill="#181818" points="234.4409,221.9688,238.4409,231.9688,242.4409,221.9688,238.4409,225.9688" style="stroke:#181818;stroke-width:1;"/><!--SRC=[Aov9B2hXuifCqqXKi5D8qbGeoKZDKz18pClNv59GW0edemahA5WvAcIbAkIbPfMbbXnTU7YjDL0qDQSuLK4ZBnMYGi7A6QRao6o4choKp3GkP9L0AvAmMg5WvOJD0E8j0PF59Va50000]--></g></svg>