<?xml version="1.0" encoding="UTF-8" standalone="no"?><svg xmlns="http://www.w3.org/2000/svg" xmlns:xlink="http://www.w3.org/1999/xlink" contentStyleType="text/css" height="264px" preserveAspectRatio="none" style="width:478px;height:264px;background:#FFFFFF;" version="1.1" viewBox="0 0 478 264" width="478px" zoomAndPan="magnify"><defs/><g><ellipse cx="239" cy="20" fill="#222222" rx="10" ry="10" style="stroke:#222222;stroke-width:1.0;"/><polygon fill="#F1F1F1" points="223.5,50,254.5,50,266.5,62,254.5,74,223.5,74,211.5,62,223.5,50" style="stroke:#181818;stroke-width:0.5;"/><text fill="#000000" font-family="sans-serif" font-size="11" lengthAdjust="spacing" textLength="31" x="223.5" y="65.8081">a &gt; b</text><text fill="#000000" font-family="sans-serif" font-size="11" lengthAdjust="spacing" textLength="21" x="190.5" y="59.4058">ano</text><text fill="#000000" font-family="sans-serif" font-size="11" lengthAdjust="spacing" textLength="14" x="266.5" y="59.4058">no</text><polygon fill="#F1F1F1" points="100,84,130,84,142,96,130,108,100,108,88,96,100,84" style="stroke:#181818;stroke-width:0.5;"/><text fill="#000000" font-family="sans-serif" font-size="11" lengthAdjust="spacing" textLength="30" x="100" y="99.8081">a &gt; c</text><text fill="#000000" font-family="sans-serif" font-size="11" lengthAdjust="spacing" textLength="21" x="67" y="93.4058">ano</text><text fill="#000000" font-family="sans-serif" font-size="11" lengthAdjust="spacing" textLength="15" x="142" y="93.4058">ne</text><rect fill="#F1F1F1" height="33.9688" rx="12.5" ry="12.5" style="stroke:#181818;stroke-width:0.5;" width="94" x="11" y="118"/><text fill="#000000" font-family="sans-serif" font-size="12" lengthAdjust="spacing" textLength="74" x="21" y="139.1387">A je nejvetší</text><rect fill="#F1F1F1" height="33.9688" rx="12.5" ry="12.5" style="stroke:#181818;stroke-width:0.5;" width="94" x="125" y="118"/><text fill="#000000" font-family="sans-serif" font-size="12" lengthAdjust="spacing" textLength="74" x="135" y="139.1387">C je největší</text><polygon fill="#F1F1F1" points="115,157.9688,127,169.9688,115,181.9688,103,169.9688,115,157.9688" style="stroke:#181818;stroke-width:0.5;"/><polygon fill="#F1F1F1" points="348,84,378,84,390,96,378,108,348,108,336,96,348,84" style="stroke:#181818;stroke-width:0.5;"/><text fill="#000000" font-family="sans-serif" font-size="11" lengthAdjust="spacing" textLength="30" x="348" y="99.8081">b &gt; c</text><text fill="#000000" font-family="sans-serif" font-size="11" lengthAdjust="spacing" textLength="21" x="315" y="93.4058">ano</text><text fill="#000000" font-family="sans-serif" font-size="11" lengthAdjust="spacing" textLength="15" x="390" y="93.4058">ne</text><rect fill="#F1F1F1" height="33.9688" rx="12.5" ry="12.5" style="stroke:#181818;stroke-width:0.5;" width="94" x="259" y="118"/><text fill="#000000" font-family="sans-serif" font-size="12" lengthAdjust="spacing" textLength="74" x="269" y="139.1387">B je největší</text><rect fill="#F1F1F1" height="33.9688" rx="12.5" ry="12.5" style="stroke:#181818;stroke-width:0.5;" width="94" x="373" y="118"/><text fill="#000000" font-family="sans-serif" font-size="12" lengthAdjust="spacing" textLength="74" x="383" y="139.1387">C je největší</text><polygon fill="#F1F1F1" points="363,157.9688,375,169.9688,363,181.9688,351,169.9688,363,157.9688" style="stroke:#181818;stroke-width:0.5;"/><polygon fill="#F1F1F1" points="239,187.9688,251,199.9688,239,211.9688,227,199.9688,239,187.9688" style="stroke:#181818;stroke-width:0.5;"/><ellipse cx="239" cy="242.9688" fill="none" rx="11" ry="11" style="stroke:#222222;stroke-width:1.0;"/><ellipse cx="239" cy="242.9688" fill="#222222" rx="6" ry="6" style="stroke:#111111;stroke-width:1.0;"/><line style="stroke:#181818;stroke-width:1.0;" x1="88" x2="58" y1="96" y2="96"/><line style="stroke:#181818;stroke-width:1.0;" x1="58" x2="58" y1="96" y2="118"/><polygon fill="#181818" points="54,108,58,118,62,108,58,112" style="stroke:#181818;stroke-width:1.0;"/><line style="stroke:#181818;stroke-width:1.0;" x1="142" x2="172" y1="96" y2="96"/><line style="stroke:#181818;stroke-width:1.0;" x1="172" x2="172" y1="96" y2="118"/><polygon fill="#181818" points="168,108,172,118,176,108,172,112" style="stroke:#181818;stroke-width:1.0;"/><line style="stroke:#181818;stroke-width:1.0;" x1="58" x2="58" y1="151.9688" y2="169.9688"/><line style="stroke:#181818;stroke-width:1.0;" x1="58" x2="103" y1="169.9688" y2="169.9688"/><polygon fill="#181818" points="93,165.9688,103,169.9688,93,173.9688,97,169.9688" style="stroke:#181818;stroke-width:1.0;"/><line style="stroke:#181818;stroke-width:1.0;" x1="172" x2="172" y1="151.9688" y2="169.9688"/><line style="stroke:#181818;stroke-width:1.0;" x1="172" x2="127" y1="169.9688" y2="169.9688"/><polygon fill="#181818" points="137,165.9688,127,169.9688,137,173.9688,133,169.9688" style="stroke:#181818;stroke-width:1.0;"/><line style="stroke:#181818;stroke-width:1.0;" x1="336" x2="306" y1="96" y2="96"/><line style="stroke:#181818;stroke-width:1.0;" x1="306" x2="306" y1="96" y2="118"/><polygon fill="#181818" points="302,108,306,118,310,108,306,112" style="stroke:#181818;stroke-width:1.0;"/><line style="stroke:#181818;stroke-width:1.0;" x1="390" x2="420" y1="96" y2="96"/><line style="stroke:#181818;stroke-width:1.0;" x1="420" x2="420" y1="96" y2="118"/><polygon fill="#181818" points="416,108,420,118,424,108,420,112" style="stroke:#181818;stroke-width:1.0;"/><line style="stroke:#181818;stroke-width:1.0;" x1="306" x2="306" y1="151.9688" y2="169.9688"/><line style="stroke:#181818;stroke-width:1.0;" x1="306" x2="351" y1="169.9688" y2="169.9688"/><polygon fill="#181818" points="341,165.9688,351,169.9688,341,173.9688,345,169.9688" style="stroke:#181818;stroke-width:1.0;"/><line style="stroke:#181818;stroke-width:1.0;" x1="420" x2="420" y1="151.9688" y2="169.9688"/><line style="stroke:#181818;stroke-width:1.0;" x1="420" x2="375" y1="169.9688" y2="169.9688"/><polygon fill="#181818" points="385,165.9688,375,169.9688,385,173.9688,381,169.9688" style="stroke:#181818;stroke-width:1.0;"/><line style="stroke:#181818;stroke-width:1.0;" x1="211.5" x2="115" y1="62" y2="62"/><line style="stroke:#181818;stroke-width:1.0;" x1="115" x2="115" y1="62" y2="84"/><polygon fill="#181818" points="111,74,115,84,119,74,115,78" style="stroke:#181818;stroke-width:1.0;"/><line style="stroke:#181818;stroke-width:1.0;" x1="266.5" x2="363" y1="62" y2="62"/><line style="stroke:#181818;stroke-width:1.0;" x1="363" x2="363" y1="62" y2="84"/><polygon fill="#181818" points="359,74,363,84,367,74,363,78" style="stroke:#181818;stroke-width:1.0;"/><line style="stroke:#181818;stroke-width:1.0;" x1="115" x2="115" y1="181.9688" y2="199.9688"/><line style="stroke:#181818;stroke-width:1.0;" x1="115" x2="227" y1="199.9688" y2="199.9688"/><polygon fill="#181818" points="217,195.9688,227,199.9688,217,203.9688,221,199.9688" style="stroke:#181818;stroke-width:1.0;"/><line style="stroke:#181818;stroke-width:1.0;" x1="363" x2="363" y1="181.9688" y2="199.9688"/><line style="stroke:#181818;stroke-width:1.0;" x1="363" x2="251" y1="199.9688" y2="199.9688"/><polygon fill="#181818" points="261,195.9688,251,199.9688,261,203.9688,257,199.9688" style="stroke:#181818;stroke-width:1.0;"/><line style="stroke:#181818;stroke-width:1.0;" x1="239" x2="239" y1="30" y2="50"/><polygon fill="#181818" points="235,40,239,50,243,40,239,44" style="stroke:#181818;stroke-width:1.0;"/><line style="stroke:#181818;stroke-width:1.0;" x1="239" x2="239" y1="211.9688" y2="231.9688"/><polygon fill="#181818" points="235,221.9688,239,231.9688,243,221.9688,239,225.9688" style="stroke:#181818;stroke-width:1.0;"/><!--SRC=[Aov9B2hXuifCqqXKi5D8qbGeoKZDKz18pClNv59GW0edemahA5WvAcIbAkIbPfMbbXnTU7YjDL0qDQSuLK4ZBnMYGi7A6QRao6o4choKp3Gkg4gO5KbOhL2mSi9c0F6MWCdYalm20000]--></g></svg>